<svg width="255" height="80" viewBox="0 0 255 80" fill="none" xmlns="http://www.w3.org/2000/svg">
<g clip-path="url(#clip0_3134_16)">
<path d="M40.8904 48.1523C43.218 45.949 42.8491 42.8393 40.0726 41.243L34.8368 38.2294C32.0603 36.6322 30.3916 32.7733 31.1276 29.6561L37.4325 2.92842C38.1676 -0.188775 36.866 -0.937957 34.5403 1.26535L2.24077 31.8491C-0.0858342 34.0524 0.28311 37.1611 3.0596 38.7593L8.29446 41.771C11.07 43.3692 12.7406 47.228 12.0055 50.3443L5.69868 77.072C4.96455 80.1892 6.26527 80.9374 8.59187 78.7351L40.8904 48.1523Z" fill="#027DB2"/>
<path d="M90.9197 26.7636C91.6449 26.2801 92.6572 25.8117 93.9567 25.3584C95.2561 24.9051 96.7218 24.6784 98.3536 24.6784C99.7437 24.6784 100.877 24.7389 101.753 24.8597C102.63 24.9806 103.068 25.0108 103.068 24.9503V37.008C101.678 36.8872 100.318 36.857 98.9883 36.9174C97.8399 37.0383 96.6462 37.2348 95.4071 37.5067C94.1681 37.7787 93.0348 38.2773 92.0074 39.0026C90.7986 39.8487 89.9374 40.9971 89.4236 42.4477C88.9098 43.8982 88.653 45.8927 88.653 48.4312V72.5466H75.0541V36.5548H67.7107L73.5129 25.0411H88.653V28.5768C88.9552 28.335 89.2271 28.0932 89.4689 27.8514C89.7107 27.6701 89.9525 27.4736 90.1943 27.2621C90.4361 27.0506 90.6779 26.8844 90.9197 26.7636ZM123.932 24.5878C127.075 24.5878 129.9 25.0257 132.408 25.9021C134.917 26.7785 137.017 28.1989 138.709 30.1632C140.401 32.1275 141.701 34.6509 142.608 37.7333C143.514 40.8157 143.968 44.5327 143.968 48.8844V50.2896L143.786 53.1454H118.402L116.498 52.8734C116.558 54.6261 116.755 56.0314 117.087 57.0891C117.42 58.1468 117.903 58.9779 118.538 59.5823C119.172 60.1867 119.943 60.6098 120.849 60.8516C121.756 61.0934 122.784 61.2445 123.932 61.305C125.806 61.4259 127.422 61.1539 128.782 60.4891C130.142 59.8243 131.426 58.4644 132.635 56.4094C134.509 57.0138 136.231 57.588 137.803 58.1319C139.132 58.6154 140.341 59.0385 141.429 59.4012C142.517 59.7638 143.061 59.9149 143.061 59.8545C140.885 64.3874 138.241 67.6965 135.128 69.7817C132.016 71.8668 128.284 72.9094 123.932 72.9094C120.729 72.9094 117.827 72.4863 115.229 71.6402C112.63 70.7941 110.424 69.419 108.61 67.5152C106.797 65.6113 105.392 63.1333 104.395 60.0811C103.398 57.0289 102.899 53.2966 102.899 48.8847C102.899 44.5935 103.398 40.9216 104.395 37.8695C105.392 34.8175 106.797 32.309 108.61 30.3448C110.424 28.3807 112.63 26.9299 115.229 25.9932C117.828 25.0564 120.728 24.5879 123.932 24.5879L123.932 24.5878ZM128.918 42.7196L130.278 42.901C130.157 40.7856 129.598 39.1386 128.601 37.96C127.604 36.7815 126.047 36.1922 123.932 36.1922C121.514 36.1922 119.777 36.7815 118.719 37.96C117.661 39.1386 117.012 40.7856 116.77 42.901C117.072 42.8405 117.344 42.7952 117.586 42.765C117.828 42.7348 118.099 42.7196 118.402 42.7196H128.918H128.918ZM153.862 36.4641L146.79 36.4643V25.0412H153.862V23.5C153.982 21.2637 154.436 19.1181 155.221 17.0632C156.007 15.0083 157.186 13.2857 158.757 11.8956C162.021 8.63187 166.494 7 172.175 7C173.807 7 175.333 7.1058 176.753 7.31731C178.173 7.52882 179.911 7.96697 181.966 8.63178L181.059 10.173L179.065 13.5274L177.07 16.8818L176.164 18.423H173.897C171.963 18.423 170.422 18.8158 169.274 19.6016C168.125 20.3873 167.551 21.6867 167.551 23.4999V25.0411H179.337L173.172 36.4642H167.188L167.551 39.0027V72.456H153.862V36.4642V36.4641ZM184.788 36.4641L177.717 36.4643V25.0412H184.788V23.5C184.909 21.2637 185.363 19.1181 186.148 17.0632C186.934 15.0083 188.113 13.2857 189.684 11.8956C192.948 8.63187 197.421 7 203.102 7C204.734 7 206.26 7.1058 207.68 7.31731C209.1 7.52882 210.838 7.96697 212.893 8.63178L211.986 10.173L209.992 13.5274L207.997 16.8818L207.091 18.423H204.824C202.89 18.423 201.349 18.8158 200.201 19.6016C199.052 20.3873 198.478 21.6867 198.478 23.4999V25.0411H210.264L204.099 36.4642H198.115L198.478 39.0027V72.456H184.788V36.4642V36.4641ZM232.034 24.5878C235.177 24.5878 238.108 25.026 240.828 25.9024C243.548 26.7788 245.89 28.184 247.854 30.1181C249.818 32.0521 251.36 34.5604 252.478 37.6428C253.596 40.7252 254.155 44.4423 254.155 48.7939C254.155 53.1456 253.596 56.8626 252.478 59.945C251.36 63.0275 249.819 65.5356 247.854 67.4698C245.89 69.404 243.548 70.809 240.828 71.6854C238.108 72.5618 235.177 73 232.034 73C228.831 73 225.884 72.5618 223.195 71.6854C220.505 70.809 218.178 69.4038 216.214 67.4698C214.25 65.5357 212.709 63.0275 211.59 59.945C210.472 56.8626 209.913 53.1456 209.913 48.7939C209.913 44.5027 210.472 40.8309 211.59 37.7788C212.709 34.7267 214.25 32.2182 216.214 30.2541C218.178 28.2899 220.505 26.8543 223.195 25.9477C225.884 25.0411 228.831 24.5878 232.034 24.5878V24.5878ZM232.034 61.1235C234.754 61.1235 236.884 60.2169 238.426 58.4037C239.967 56.5905 240.737 53.3871 240.737 48.7938C240.737 44.2006 239.967 40.9822 238.426 39.1386C236.884 37.295 234.754 36.3735 232.034 36.3735C229.375 36.3735 227.244 37.3254 225.643 39.2293C224.041 41.1331 223.24 44.3211 223.24 48.7938C223.24 53.3871 224.026 56.5905 225.597 58.4037C227.169 60.2169 229.314 61.1235 232.034 61.1235Z" fill="#222222"/>
</g>
<defs>
<clipPath id="clip0_3134_16">
<rect width="253.444" height="80" fill="white" transform="translate(0.710663)"/>
</clipPath>
</defs>
</svg>
